:FULLY-SPECIFIED
:FORCE-ALL-JOINTS-BE-3DOF
:DEGREES
49
root 8.64026 15.919 -29.4475 6.47159 -10.6111 -2.39917
lfemur -38.705 8.75351 -18.9389
ltibia 39.1233 0 0
lfoot -5.9537 6.66701 0
ltoes -1.03276 0 0
rfemur 13.7349 2.48244 19.4234
rtibia 27.6689 0 0
rfoot 7.02037 -0.135933 0
rtoes -12.0744 0 0
lowerback -6.10022 0.917643 -0.309141
upperback -2.51522 1.18946 3.02027
thorax 0.750587 0.609578 3.36953
lowerneck -21.3966 -4.46849 -12.9743
upperneck 17.1469 -5.33498 14.612
head 9.73459 -1.74975 6.58118
lclavicle 2.29174e-14 -2.48818e-14 0
lhumerus -44.6345 -1.94516 88.786
lradius 19.665 0 0
lwrist -5.84036 0 0
lhand 4.248 -16.5724 0
lfingers 7.12502 0 0
lthumb 29.6527 11.0807 0
rclavicle 2.29174e-14 -2.48818e-14 0
rhumerus -46.1062 17.8094 -94.0469
rradius 46.04 0 0
rwrist -23.4682 0 0
rhand -29.2763 -26.6921 0
rfingers 7.12502 0 0
rthumb -2.61848 -56.6546 0
50
root 8.66156 15.9218 -29.298 6.4316 -10.6468 -2.32263
lfemur -38.287 8.69762 -19.0695
ltibia 38.8257 0 0
lfoot -5.9618 6.63754 0
ltoes -0.919181 0 0
rfemur 13.5319 2.48897 19.2454
rtibia 27.8191 0 0
rfoot 6.83002 -0.21706 0
rtoes -12.2595 0 0
lowerback -6.13381 0.893601 -0.361761
upperback -2.5051 1.16085 3.01458
thorax 0.782753 0.594391 3.39042
lowerneck -21.4145 -4.46664 -12.9698
upperneck 17.2186 -5.3254 14.5516
head 9.75836 -1.75025 6.56191
lclavicle 2.26548e-14 -2.51006e-14 0
lhumerus -44.5031 -2.15104 88.8075
lradius 19.7574 0 0
lwrist -5.8277 0 0
lhand 4.26118 -16.5873 0
lfingers 7.12502 0 0
lthumb 29.6653 11.0632 0
rclavicle 2.26548e-14 -2.51006e-14 0
rhumerus -46.176 17.7435 -94.0909
rradius 45.8365 0 0
rwrist -23.3832 0 0
rhand -29.2345 -26.6783 0
rfingers 7.12502 0 0
rthumb -2.57815 -56.6417 0
51
root 8.682 15.9247 -29.1538 6.39201 -10.6732 -2.2469
lfemur -37.8696 8.6398 -19.1983
ltibia 38.5311 0 0
lfoot -5.97664 6.60931 0
ltoes -0.813732 0 0
rfemur 13.3102 2.49727 19.0753
rtibia 27.9669 0 0
rfoot 6.63377 -0.298269 0
rtoes -12.4357 0 0
lowerback -6.16607 0.868938 -0.413533
upperback -2.49418 1.13139 3.00851
thorax 0.815066 0.578771 3.41036
lowerneck -21.4304 -4.46533 -12.9656
upperneck 17.2877 -5.3168 14.493
head 9.78114 -1.75117 6.54306
lclavicle 2.23788e-14 -2.52882e-14 0
lhumerus -44.3646 -2.35819 88.8271
lradius 19.8561 0 0
lwrist -5.80481 0 0
lhand 4.26077 -16.6072 0
lfingers 7.12502 0 0
lthumb 29.6648 11.0422 0
rclavicle 2.23788e-14 -2.52882e-14 0
rhumerus -46.2402 17.6772 -94.1272
rradius 45.6404 0 0
rwrist -23.3019 0 0
rhand -29.1957 -26.6636 0
rfingers 7.12502 0 0
rthumb -2.54068 -56.6279 0
52
root 8.70153 15.9276 -29.0153 6.35292 -10.6905 -2.17215
lfemur -37.4537 8.58018 -19.3252
ltibia 38.2402 0 0
lfoot -5.99817 6.58237 0
ltoes -0.716628 0 0
rfemur 13.0702 2.50729 18.9134
rtibia 28.112 0 0
rfoot 6.43211 -0.379373 0
rtoes -12.6026 0 0
lowerback -6.19695 0.843713 -0.464342
upperback -2.48249 1.10116 3.00208
thorax 0.847453 0.562755 3.42934
lowerneck -21.4442 -4.46457 -12.9617
upperneck 17.3541 -5.30921 14.4361
head 9.80289 -1.7525 6.52466
lclavicle 2.20899e-14 -2.54444e-14 0
lhumerus -44.2194 -2.56614 88.8448
lradius 19.9607 0 0
lwrist -5.77177 0 0
lhand 4.24683 -16.6321 0
lfingers 7.12502 0 0
lthumb 29.6513 11.0177 0
rclavicle 2.20899e-14 -2.54444e-14 0
rhumerus -46.2987 17.6106 -94.1559
rradius 45.4521 0 0
rwrist -23.2246 0 0
rhand -29.1599 -26.6483 0
rfingers 7.12502 0 0
rthumb -2.50613 -56.6133 0
53
root 8.72072 15.9308 -28.8806 6.21598 -10.6638 -1.98896
lfemur -36.8468 8.28026 -19.8188
ltibia 37.4185 0 0
lfoot -6.74466 6.61411 0
ltoes -0.654725 0 0
rfemur 12.1252 2.6551 18.6902
rtibia 28.3553 0 0
rfoot 5.68529 -0.660909 0
rtoes -12.7616 0 0
lowerback -6.25407 0.793657 -0.585789
upperback -2.41428 1.04502 2.95411
thorax 0.956423 0.531129 3.44067
lowerneck -21.418 -4.45409 -12.9331
upperneck 17.488 -5.29097 14.3217
head 9.83722 -1.75578 6.48415
lclavicle 1.99643e-14 -2.43946e-14 0
lhumerus -43.4167 -3.50386 88.8218
lradius 20.7305 0 0
lwrist -4.96595 0 0
lhand 3.66561 -16.9256 0
lfingers 7.12502 0 0
lthumb 29.0925 10.7794 0
rclavicle 1.99643e-14 -2.43946e-14 0
rhumerus -46.2158 17.577 -94.1121
rradius 45.4458 0 0
rwrist -23.274 0 0
rhand -29.1581 -26.6141 0
rfingers 7.12502 0 0
rthumb -2.50436 -56.5791 0
54
root 8.74014 15.9344 -28.7476 6.08225 -10.6222 -1.80732
lfemur -36.2158 7.98535 -20.2982
ltibia 36.6091 0 0
lfoot -7.46395 6.64255 0
ltoes -0.599052 0 0
rfemur 11.1619 2.79925 18.4727
rtibia 28.6005 0 0
rfoot 4.9409 -0.937841 0
rtoes -12.9171 0 0
lowerback -6.3096 0.741571 -0.705751
upperback -2.34675 0.986 2.90727
thorax 1.064 0.498123 3.4522
lowerneck -21.3911 -4.44525 -12.9062
upperneck 17.6184 -5.27474 14.2091
head 9.87066 -1.75992 6.4442
lclavicle 1.78945e-14 -2.33656e-14 0
lhumerus -42.6256 -4.41916 88.7988
lradius 21.4829 0 0
lwrist -4.18192 0 0
lhand 3.08869 -17.2158 0
lfingers 7.12502 0 0
lthumb 28.5379 10.5443 0
rclavicle 1.78945e-14 -2.33656e-14 0
rhumerus -46.135 17.5347 -94.0593
rradius 45.4275 0 0
rwrist -23.3168 0 0
rhand -29.1572 -26.5781 0
rfingers 7.12502 0 0
rthumb -2.5035 -56.5432 0
55
root 8.75975 15.9386 -28.6164 5.95173 -10.5662 -1.62728
lfemur -35.5619 7.69548 -20.7636
ltibia 35.812 0 0
lfoot -8.15643 6.66778 0
ltoes -0.54946 0 0
rfemur 10.1815 2.93976 18.2609
rtibia 28.8474 0 0
rfoot 4.19933 -1.21014 0
rtoes -13.0693 0 0
lowerback -6.36357 0.687546 -0.8242
upperback -2.27992 0.92423 2.86156
thorax 1.17016 0.463797 3.4639
lowerneck -21.3634 -4.43801 -12.881
upperneck 17.7455 -5.26046 14.0984
head 9.90323 -1.76489 6.4048
lclavicle 1.588e-14 -2.23574e-14 0
lhumerus -41.8463 -5.31216 88.7757
lradius 22.218 0 0
lwrist -3.4195 0 0
lhand 2.51628 -17.5025 0
lfingers 7.12502 0 0
lthumb 27.9877 10.3125 0
rclavicle 1.588e-14 -2.23574e-14 0
rhumerus -46.0563 17.4839 -93.9978
rradius 45.3976 0 0
rwrist -23.3533 0 0
rhand -29.1572 -26.5403 0
rfingers 7.12502 0 0
rthumb -2.50355 -56.5054 0
56
root 8.77955 15.9431 -28.4868 5.82439 -10.4962 -1.44891
lfemur -34.8861 7.41068 -21.2151
ltibia 35.0274 0 0
lfoot -8.82247 6.68988 0
ltoes -0.505799 0 0
rfemur 9.18512 3.07665 18.0548
rtibia 29.0959 0 0
rfoot 3.46094 -1.47778 0
rtoes -13.2181 0 0
lowerback -6.41598 0.631671 -0.94111
upperback -2.2138 0.859828 2.81696
thorax 1.27487 0.42821 3.47577
lowerneck -21.3352 -4.43231 -12.8573
upperneck 17.8693 -5.24808 13.9896
head 9.93492 -1.77067 6.36597
lclavicle 1.39204e-14 -2.137e-14 0
lhumerus -41.0789 -6.18298 88.7528
lradius 22.9357 0 0
lwrist -2.67852 0 0
lhand 1.9486 -17.7859 0
lfingers 7.12502 0 0
lthumb 27.442 10.084 0
rclavicle 1.39204e-14 -2.137e-14 0
rhumerus -45.9796 17.425 -93.928
rradius 45.3565 0 0
rwrist -23.3837 0 0
rhand -29.1582 -26.5009 0
rfingers 7.12502 0 0
rthumb -2.50445 -56.466 0
57
root 8.79949 15.948 -28.3587 5.70022 -10.4127 -1.27226
lfemur -34.1895 7.13097 -21.6528
ltibia 34.2553 0 0
lfoot -9.46243 6.70893 0
ltoes -0.467918 0 0
rfemur 8.17382 3.20995 17.8543
rtibia 29.3456 0 0
rfoot 2.72611 -1.74072 0
rtoes -13.3635 0 0
lowerback -6.46685 0.574037 -1.05645
upperback -2.14842 0.792911 2.77348
thorax 1.37812 0.391424 3.48779
lowerneck -21.3062 -4.42812 -12.8353
upperneck 17.9897 -5.23757 13.8826
head 9.96574 -1.77722 6.32771
lclavicle 1.20154e-14 -2.04033e-14 0
lhumerus -40.3235 -7.03173 88.7298
lradius 23.6363 0 0
lwrist -1.95879 0 0
lhand 1.38586 -18.0656 0
lfingers 7.12502 0 0
lthumb 26.901 9.85875 0
rclavicle 1.20154e-14 -2.04033e-14 0
rhumerus -45.905 17.3583 -93.85
rradius 45.3044 0 0
rwrist -23.4079 0 0
rhand -29.16 -26.4599 0
rfingers 7.12502 0 0
rthumb -2.5062 -56.425 0
